<?xml version="1.0" encoding="utf-8"?>
<!-- Generator: Adobe Illustrator 19.0.0, SVG Export Plug-In . SVG Version: 6.00 Build 0)  -->
<svg version="1.1" id="Lager_1" xmlns="http://www.w3.org/2000/svg" xmlns:xlink="http://www.w3.org/1999/xlink" x="0px" y="0px"
	 viewBox="0 0 612 792" style="enable-background:new 0 0 612 792;" xml:space="preserve">
<style type="text/css">
	.st0{fill:#FFFFFF;}
</style>
<path class="st0" d="M43.8,42.6c0,0-0.2-8.6,9.3-8.6s330.3,0,330.3,0s8.8,1.4,13.5,6c4.6,4.6,84,81.4,84,81.4s6.7,4.9,6.7,14.4
	s0.2,478.6,0.2,478.6l-11.4,11.4l11.4,11.4v113.9c0,0-1.2,7.4-7.4,7.4c-6.3,0-426.2,0-426.2,0s-10.4,0-10.4-9.3c0-9.3,0-112,0-112
	l11.4-11.4l-11.4-11.6L43.8,42.6z"/>
</svg>
